<?xml version="1.0" encoding="utf-8"?>
<!-- Generator: Adobe Illustrator 21.1.0, SVG Export Plug-In . SVG Version: 6.00 Build 0)  -->
<svg version="1.1" id="Capa_1" xmlns="http://www.w3.org/2000/svg" xmlns:xlink="http://www.w3.org/1999/xlink" x="0px" y="0px"
	 viewBox="0 0 51.2 59.6" style="enable-background:new 0 0 51.2 59.6;" xml:space="preserve">
<style type="text/css">
	.st0{display:none;}
	.st1{display:inline;}
	.st2{enable-background:new    ;}
	.st3{clip-path:url(#SVGID_2_);fill:none;stroke:#000000;stroke-width:0.25;stroke-miterlimit:10;}
	.st4{clip-path:url(#SVGID_4_);fill:none;stroke:#000000;stroke-width:0.25;stroke-miterlimit:10;}
	.st5{clip-path:url(#SVGID_6_);fill:none;stroke:#000000;stroke-width:0.25;stroke-miterlimit:10;}
	.st6{clip-path:url(#SVGID_8_);fill:none;stroke:#000000;stroke-width:0.25;stroke-miterlimit:10;}
	.st7{clip-path:url(#SVGID_10_);fill:none;stroke:#000000;stroke-width:0.25;stroke-miterlimit:10;}
	.st8{clip-path:url(#SVGID_12_);fill:none;stroke:#000000;stroke-width:0.25;stroke-miterlimit:10;}
	.st9{clip-path:url(#SVGID_14_);fill:none;stroke:#000000;stroke-width:0.25;stroke-miterlimit:10;}
	.st10{clip-path:url(#SVGID_16_);fill:none;stroke:#000000;stroke-width:0.25;stroke-miterlimit:10;}
	.st11{clip-path:url(#SVGID_18_);fill:none;stroke:#000000;stroke-width:0.25;stroke-miterlimit:10;}
	.st12{clip-path:url(#SVGID_20_);fill:none;stroke:#000000;stroke-width:0.25;stroke-miterlimit:10;}
	.st13{fill:#FFFFFF;}
</style>
<g id="Capa_1_1_" class="st0">
	
		<image style="display:inline;overflow:visible;enable-background:new    ;" width="450" height="479" xlink:href="5C08F347.jpeg"  transform="matrix(0.2044 0 0 0.2006 72.5833 -17.2002)">
	</image>
	<g class="st1">
		<g>
			<g class="st2">
				<g class="st2">
					<g>
						<defs>
							<path id="SVGID_1_" d="M25.5,29.9l24.8,14.3L25.6,58.5L0.8,44.2L25.5,29.9z M25.6,58.1l24-13.9L25.5,30.3l-24,13.9L25.6,58.1
								"/>
						</defs>
						<clipPath id="SVGID_2_">
							<use xlink:href="#SVGID_1_"  style="overflow:visible;"/>
						</clipPath>
						<path class="st3" d="M25.5,29.9l24.8,14.3L25.6,58.5L0.8,44.2L25.5,29.9z M25.6,58.1l24-13.9L25.5,30.3l-24,13.9L25.6,58.1"/>
					</g>
				</g>
				<g class="st2">
					<g>
						<defs>
							<path id="SVGID_3_" d="M25.5,1.2l24.8,14.3L25.7,29.8L0.9,15.5L25.5,1.2z M25.7,29.4l24-13.9L25.5,1.6l-24,13.9L25.7,29.4"/>
						</defs>
						<clipPath id="SVGID_4_">
							<use xlink:href="#SVGID_3_"  style="overflow:visible;"/>
						</clipPath>
						<path class="st4" d="M25.5,1.2l24.8,14.3L25.7,29.8L0.9,15.5L25.5,1.2z M25.7,29.4l24-13.9L25.5,1.6l-24,13.9L25.7,29.4"/>
					</g>
				</g>
				<g class="st2">
					<g>
						<defs>
							<polygon id="SVGID_5_" points="25.5,1.2 50.4,15.5 50.3,44.2 25.5,29.9 							"/>
						</defs>
						<clipPath id="SVGID_6_">
							<use xlink:href="#SVGID_5_"  style="overflow:visible;"/>
						</clipPath>
						<polygon class="st5" points="25.5,1.2 50.4,15.5 50.3,44.2 25.5,29.9 						"/>
					</g>
				</g>
				<g class="st2">
					<g>
						<defs>
							<polygon id="SVGID_7_" points="50.4,15.5 50.3,44.2 25.6,58.5 25.7,29.8 							"/>
						</defs>
						<clipPath id="SVGID_8_">
							<use xlink:href="#SVGID_7_"  style="overflow:visible;"/>
						</clipPath>
						<polygon class="st6" points="50.4,15.5 50.3,44.2 25.6,58.5 25.7,29.8 						"/>
					</g>
				</g>
				<g class="st2">
					<g>
						<defs>
							<polygon id="SVGID_9_" points="25.7,29.8 25.6,58.5 0.8,44.2 0.9,15.5 							"/>
						</defs>
						<clipPath id="SVGID_10_">
							<use xlink:href="#SVGID_9_"  style="overflow:visible;"/>
						</clipPath>
						<polygon class="st7" points="25.7,29.8 25.6,58.5 0.8,44.2 0.9,15.5 						"/>
					</g>
				</g>
				<g class="st2">
					<g>
						<defs>
							<polygon id="SVGID_11_" points="0.9,15.5 25.5,1.2 25.5,29.9 0.8,44.2 							"/>
						</defs>
						<clipPath id="SVGID_12_">
							<use xlink:href="#SVGID_11_"  style="overflow:visible;"/>
						</clipPath>
						<polygon class="st8" points="0.9,15.5 25.5,1.2 25.5,29.9 0.8,44.2 						"/>
					</g>
				</g>
				<g class="st2">
					<g>
						<defs>
							<polygon id="SVGID_13_" points="25.7,29.4 49.7,15.5 49.6,44.2 25.6,58.1 							"/>
						</defs>
						<clipPath id="SVGID_14_">
							<use xlink:href="#SVGID_13_"  style="overflow:visible;"/>
						</clipPath>
						<polygon class="st9" points="25.7,29.4 49.7,15.5 49.6,44.2 25.6,58.1 						"/>
					</g>
				</g>
				<g class="st2">
					<g>
						<defs>
							<polygon id="SVGID_15_" points="49.7,15.5 49.6,44.2 25.5,30.3 25.5,1.6 							"/>
						</defs>
						<clipPath id="SVGID_16_">
							<use xlink:href="#SVGID_15_"  style="overflow:visible;"/>
						</clipPath>
						<polygon class="st10" points="49.7,15.5 49.6,44.2 25.5,30.3 25.5,1.6 						"/>
					</g>
				</g>
				<g class="st2">
					<g>
						<defs>
							<polygon id="SVGID_17_" points="25.5,1.6 25.5,30.3 1.5,44.2 1.6,15.5 							"/>
						</defs>
						<clipPath id="SVGID_18_">
							<use xlink:href="#SVGID_17_"  style="overflow:visible;"/>
						</clipPath>
						<polygon class="st11" points="25.5,1.6 25.5,30.3 1.5,44.2 1.6,15.5 						"/>
					</g>
				</g>
				<g class="st2">
					<g>
						<defs>
							<polygon id="SVGID_19_" points="1.6,15.5 25.7,29.4 25.6,58.1 1.5,44.2 							"/>
						</defs>
						<clipPath id="SVGID_20_">
							<use xlink:href="#SVGID_19_"  style="overflow:visible;"/>
						</clipPath>
						<polygon class="st12" points="1.6,15.5 25.7,29.4 25.6,58.1 1.5,44.2 						"/>
					</g>
				</g>
			</g>
		</g>
	</g>
</g>
<g id="Capa_2">
	<g>
		<path class="st13" d="M25.6,21.2L0,14.3v38.6l25.6,6.9l25.6-6.9V14.3L25.6,21.2z M2.4,51.1V17.4l22,5.9V57L2.4,51.1z M48.8,51.1
			l-22,5.9V23.4l22-5.9V51.1z"/>
	</g>
	<g>
		<path class="st13" d="M33.7,16.8c-1.6-3-4.7-4.9-8.1-4.9s-6.5,1.9-8.1,4.9l-1.9-1c1.9-3.8,5.8-6.1,10-6.1s8,2.3,10,6.1L33.7,16.8z
			"/>
	</g>
	<g>
		<path class="st13" d="M37.4,13.2c-2.6-4-7-6.4-11.8-6.4s-9.2,2.4-11.8,6.4L12,12c3-4.6,8.1-7.4,13.6-7.4S36.1,7.4,39.2,12
			L37.4,13.2z"/>
	</g>
	<g>
		<path class="st13" d="M10.4,9.9L8.7,8.7C12.6,3.3,18.9,0,25.6,0c6.6,0,12.9,3.2,16.9,8.6l-1.7,1.2C37.2,5,31.5,2.2,25.6,2.2
			S14,5,10.4,9.9z"/>
	</g>
</g>
<g id="Capa_3">
</g>
</svg>
