<?xml version="1.0" encoding="utf-8"?>
<!-- Generator: Adobe Illustrator 21.1.0, SVG Export Plug-In . SVG Version: 6.00 Build 0)  -->
<svg version="1.1" id="Capa_2" xmlns="http://www.w3.org/2000/svg" xmlns:xlink="http://www.w3.org/1999/xlink" x="0px" y="0px"
	 viewBox="0 0 310 110.5" style="enable-background:new 0 0 310 110.5;" xml:space="preserve">
<style type="text/css">
	.st0{fill:url(#SVGID_1_);}
</style>
<title>tello-logo</title>
<linearGradient id="SVGID_1_" gradientUnits="userSpaceOnUse" x1="0" y1="55.2804" x2="310.1" y2="55.2804">
	<stop  offset="0" style="stop-color:#121212"/>
	<stop  offset="1" style="stop-color:#000000"/>
</linearGradient>
<path class="st0" d="M151.7,43.5h-8.9v26.8h-13.4v-4.5h-4.5V43.5h-4.5V39h-4.5v-8.9h4.5v-4.5h26.8v4.5h4.5L151.7,43.5L151.7,43.5z
	 M142.7,34.5V30h-22.4v4.5h8.9v26.8h4.5V34.5H142.7z M190.2,70.3h-26.8v-4.5h-4.5V30.1h4.5v-4.5h22.4v4.5h4.5V39h-4.5v4.5h4.5v8.9
	h-4.5v4.5h4.5L190.2,70.3L190.2,70.3z M181.2,61.3v-4.5h-13.4v-8.9h13.4v-4.5h-13.4v-8.9h13.4V30h-17.9v31.3H181.2z M228.6,70.3
	h-26.8v-4.5h-4.5V30.1h4.5v-4.5h8.9v4.5h4.5v22.4h8.9V57h4.5L228.6,70.3L228.6,70.3z M219.7,61.3v-4.5h-13.4V30.1h-4.5v31.3h17.9
	V61.3z M267.1,70.3h-26.8v-4.5h-4.5V30.1h4.5v-4.5h8.9v4.5h4.5v22.4h8.9V57h4.5V70.3z M258.1,61.3v-4.5h-13.4V30.1h-4.5v31.3h17.9
	V61.3z M310,65.8h-4.5v4.5h-22.3v-4.5h-4.5v-4.5h-4.5V34.5h4.5V30h4.5v-4.5h17.9V30h4.4v4.5h4.5V65.8z M283.2,56.9V34.5h-4.5v22.4
	H283.2z M296.6,34.5V30h-13.4v4.5H296.6z M296.6,61.3v-4.5h-13.4v4.5H296.6z M301.1,56.9V34.5h-4.5v22.4H301.1z M116,85v-8.3h1.4V85
	H116z M120.2,85v-8.3h1.4V78h1.4v1.4h-1.4V85H120.2z M124.3,85v-4.2h-1.4v-1.4h1.4v-2.8h1.4v8.3L124.3,85z M131.3,85v-7h-2.8v-1.4
	h6.9V78h-2.8v7H131.3z M138.2,85v-8.3h5.5V78h-4.2v1.4h4.2v1.4h-4.2v2.8h4.2V85H138.2z M146.5,85v-8.3h4.2V78h-2.8v1.4h2.8v1.4h-2.8
	V85H146.5z M150.7,79.4V78h1.4v1.4H150.7z M150.7,85v-4.2h1.4V85H150.7z M154.8,85v-7h1.4v2.8h2.8V78h1.4v7H159v-2.7h-2.8V85H154.8z
	 M156.2,78v-1.4h2.8V78H156.2z M163.1,83.6V78h1.4v5.5L163.1,83.6L163.1,83.6z M164.5,78v-1.4h2.8V78H164.5z M164.5,85v-1.4h2.8V85
	H164.5z M167.3,79.4V78h1.4v1.4H167.3z M167.3,83.6v-1.4h1.4v1.4H167.3z M174.2,85v-7h-2.8v-1.4h6.9V78h-2.8v7H174.2z M181.1,85
	v-8.3h1.4V85H181.1z M185.3,82.2v-5.5h1.4v5.5H185.3z M186.7,83.6v-1.4h1.4v1.4H186.7z M188.1,85v-1.4h1.4V85H188.1z M189.5,83.6
	v-1.4h1.4v1.4H189.5z M190.9,82.2v-5.5h1.4v5.5H190.9z M195,85v-8.3h5.5V78h-4.2v1.4h4.2v1.4h-4.2v2.8h4.2V85H195z M207.5,85v-8.3
	h1.4V78h1.4v1.4h-1.4V85H207.5z M210.3,80.8v-1.4h1.4v1.4H210.3z M213,85v-5.5h-1.4V78h1.4v-1.4h1.4v8.3L213,85z M217.2,85v-8.3h5.5
	V78h-4.2v1.4h4.2v1.4h-4.2v2.8h4.2V85H217.2z M225.5,85v-8.3h4.2V78h-2.8v5.5h2.8V85H225.5z M229.7,83.6V78h1.4v5.5L229.7,83.6
	L229.7,83.6z M233.8,85v-8.3h1.4V85H233.8z M237.9,85v-7h1.4v2.8h2.8V78h1.4v7h-1.4v-2.7h-2.8V85H237.9z M239.3,78v-1.4h2.8V78
	H239.3z M250.4,85v-8.3h4.2V78h-2.8v5.5h2.8V85H250.4z M254.6,83.6V78h1.4v5.5L254.6,83.6L254.6,83.6z M258.7,85v-8.3h5.5V78H260
	v1.4h4.2v1.4H260v2.8h4.2V85H258.7z M267,85v-1.4h4.2v-2.8H267v-4.2h5.5V78h-4.2v1.4h4.2v5.5L267,85z M275.4,85v-8.3h1.4V85H275.4z
	 M279.5,83.6V78h1.4v5.5L279.5,83.6L279.5,83.6z M280.9,78v-1.4h4.2V78H280.9z M280.9,85v-1.4h2.8V85H280.9z M283.7,83.6v-2.8h-1.4
	v-1.4h2.8v4.2C285.1,83.6,283.7,83.6,283.7,83.6z M287.8,85v-8.3h1.4V78h1.4v1.4h-1.4V85H287.8z M292,85v-4.2h-1.4v-1.4h1.4v-2.8
	h1.4v8.3L292,85z M296.2,85v-8.3h5.5V78h-4.2v1.4h4.2v1.4h-4.2v2.8h4.2V85H296.2z M304.5,85v-8.3h4.2V78h-2.8v1.4h2.8v1.4h-2.8V85
	H304.5z M308.7,79.4V78h1.4v1.4H308.7z M308.7,85v-4.2h1.4V85H308.7z M103.2,36.9V22.1h-7.4v-7.4h-7.3V7.4H73.8V0H36.9v7.4H22.1v7.4
	h-7.4v7.4H7.4v14.7H0v29.5h66.4v7.4h44.3V36.9H103.2z M36.9,36.9v14.7h-7.4V36.9H36.9z M81.1,51.6h-7.4V36.9h7.4V51.6z M88.5,81.1
	v7.3H66.4v-7.3H59v-7.4H7.4v14.7h7.4v7.4h7.4v7.4h14.7v7.4h36.9v-7.4h14.8v-7.4h7.3v-7.4h7.4v-7.3H88.5z"/>
</svg>
